<svg width="26" height="26" viewBox="0 0 26 26" fill="none" xmlns="http://www.w3.org/2000/svg">
<g id="Iconly/Light-Outline/Profile">
<g id="Profile">
<g id="Group 3">
<mask id="mask0_2_2708" style="mask-type:luminance" maskUnits="userSpaceOnUse" x="4" y="15" width="18" height="9">
<path id="Clip 2" fill-rule="evenodd" clip-rule="evenodd" d="M4.33337 15.7041H21.4933V23.6926H4.33337V15.7041Z" fill="white"/>
</mask>
<g mask="url(#mask0_2_2708)">
<path id="Fill 1" fill-rule="evenodd" clip-rule="evenodd" d="M12.9143 17.3291C8.29825 17.3291 5.95825 18.1221 5.95825 19.6875C5.95825 21.267 8.29825 22.0676 12.9143 22.0676C17.5293 22.0676 19.8683 21.2746 19.8683 19.7092C19.8683 18.1297 17.5293 17.3291 12.9143 17.3291ZM12.9143 23.6926C10.7921 23.6926 4.33325 23.6926 4.33325 19.6875C4.33325 16.1169 9.231 15.7041 12.9143 15.7041C15.0366 15.7041 21.4933 15.7041 21.4933 19.7092C21.4933 23.2799 16.5966 23.6926 12.9143 23.6926Z" fill="#001833"/>
</g>
</g>
<g id="Group 6">
<mask id="mask1_2_2708" style="mask-type:luminance" maskUnits="userSpaceOnUse" x="7" y="2" width="12" height="12">
<path id="Clip 5" fill-rule="evenodd" clip-rule="evenodd" d="M7.16077 2.16675H18.6658V13.6702H7.16077V2.16675Z" fill="white"/>
</mask>
<g mask="url(#mask1_2_2708)">
<path id="Fill 4" fill-rule="evenodd" clip-rule="evenodd" d="M12.9144 3.71326C10.595 3.71326 8.7078 5.59934 8.7078 7.91876C8.70022 10.2306 10.5733 12.1156 12.883 12.1243L12.9144 12.8978V12.1243C15.2327 12.1243 17.1188 10.2371 17.1188 7.91876C17.1188 5.59934 15.2327 3.71326 12.9144 3.71326ZM12.9144 13.6702H12.8797C9.71422 13.6604 7.14997 11.0788 7.1608 7.91551C7.1608 4.74676 9.7413 2.16626 12.9144 2.16626C16.0864 2.16626 18.6658 4.74676 18.6658 7.91876C18.6658 11.0908 16.0864 13.6702 12.9144 13.6702Z" fill="#001833"/>
</g>
</g>
</g>
</g>
</svg>
